<svg aria-hidden="true" style="position: absolute; width: 0; height: 0; overflow: hidden;" version="1.1" xmlns="http://www.w3.org/2000/svg" xmlns:xlink="http://www.w3.org/1999/xlink">
<defs>
<symbol id="icon-ic_round-close" viewBox="0 0 32 32">
<path fill="#fff" style="fill: var(--color1, #fff)" d="M27.621 4.397c-0.171-0.171-0.373-0.307-0.596-0.399s-0.462-0.14-0.704-0.14c-0.242 0-0.481 0.048-0.704 0.14s-0.426 0.228-0.596 0.399l-9.020 9.002-9.020-9.020c-0.171-0.171-0.374-0.306-0.597-0.399s-0.462-0.14-0.704-0.14c-0.242 0-0.481 0.048-0.704 0.14s-0.426 0.228-0.597 0.399c-0.171 0.171-0.306 0.374-0.399 0.597s-0.14 0.462-0.14 0.704c0 0.242 0.048 0.481 0.14 0.704s0.228 0.426 0.399 0.597l9.020 9.020-9.020 9.020c-0.171 0.171-0.306 0.374-0.399 0.597s-0.14 0.462-0.14 0.704c0 0.241 0.048 0.481 0.14 0.704s0.228 0.426 0.399 0.597c0.171 0.171 0.374 0.306 0.597 0.399s0.462 0.14 0.704 0.14 0.481-0.048 0.704-0.14c0.223-0.092 0.426-0.228 0.597-0.399l9.020-9.020 9.020 9.020c0.171 0.171 0.374 0.306 0.597 0.399s0.462 0.14 0.704 0.14c0.242 0 0.481-0.048 0.704-0.14s0.426-0.228 0.597-0.399c0.171-0.171 0.306-0.374 0.399-0.597s0.14-0.462 0.14-0.704c0-0.242-0.048-0.481-0.14-0.704s-0.228-0.426-0.399-0.597l-9.020-9.020 9.020-9.020c0.701-0.701 0.701-1.882 0-2.582z"></path>
</symbol>
</defs>
</svg>